<svg xmlns="http://www.w3.org/2000/svg" viewBox="0 0 800 376" font-family="'Segoe UI',Arial,sans-serif">
  <rect width="800" height="376" fill="#f8fafc"/>
  <text x="400" y="30" text-anchor="middle" font-size="19" font-weight="700" fill="#0f172a">증류는 초반에 뒤진다</text>
  <text x="400" y="52" text-anchor="middle" font-size="13.5" fill="#64748b">같은 데이터(10,000장) · 같은 학생 · 에폭별 테스트 정확도 (시드 0)</text>
  <line x1="92" y1="268" x2="762" y2="268" stroke="#94a3b8" stroke-width="1.5"/>
  <line x1="92" y1="80" x2="92" y2="274" stroke="#94a3b8" stroke-width="1.5"/>
  <line x1="92" y1="234.9" x2="762" y2="234.9" stroke="#e2e8f0"/>
  <text x="84" y="238.9" text-anchor="end" font-size="11.5" fill="#94a3b8">70%</text>
  <line x1="92" y1="193.5" x2="762" y2="193.5" stroke="#e2e8f0"/>
  <text x="84" y="197.5" text-anchor="end" font-size="11.5" fill="#94a3b8">75%</text>
  <line x1="92" y1="152.2" x2="762" y2="152.2" stroke="#e2e8f0"/>
  <text x="84" y="156.2" text-anchor="end" font-size="11.5" fill="#94a3b8">80%</text>
  <line x1="92" y1="110.8" x2="762" y2="110.8" stroke="#e2e8f0"/>
  <text x="84" y="114.8" text-anchor="end" font-size="11.5" fill="#94a3b8">85%</text>
  <text x="92.0" y="288" text-anchor="middle" font-size="12" fill="#64748b">1</text>
  <text x="253.1" y="288" text-anchor="middle" font-size="12" fill="#64748b">20</text>
  <text x="422.8" y="288" text-anchor="middle" font-size="12" fill="#64748b">40</text>
  <text x="592.4" y="288" text-anchor="middle" font-size="12" fill="#64748b">60</text>
  <text x="762.0" y="288" text-anchor="middle" font-size="12" fill="#64748b">80</text>
  <text x="427.0" y="308" text-anchor="middle" font-size="12.5" fill="#475569">에폭</text>
  <path d="M92.0 260.2 L100.5 210.0 L109.0 190.8 L117.4 174.7 L125.9 170.1 L134.4 155.2 L142.9 150.7 L151.4 141.1 L159.8 136.3 L168.3 135.8 L176.8 136.0 L185.3 129.0 L193.8 134.9 L202.3 130.4 L210.7 126.3 L219.2 140.8 L227.7 123.1 L236.2 120.1 L244.7 116.9 L253.1 129.9 L261.6 117.2 L270.1 116.3 L278.6 113.5 L287.1 113.4 L295.5 112.8 L304.0 114.0 L312.5 114.9 L321.0 112.6 L329.5 114.9 L337.9 112.9 L346.4 115.0 L354.9 112.8 L363.4 109.2 L371.9 109.2 L380.4 108.9 L388.8 111.0 L397.3 105.9 L405.8 107.7 L414.3 106.6 L422.8 109.4 L431.2 109.2 L439.7 108.6 L448.2 109.5 L456.7 108.3 L465.2 106.1 L473.6 117.8 L482.1 107.3 L490.6 105.9 L499.1 105.8 L507.6 109.4 L516.1 105.0 L524.5 105.9 L533.0 105.1 L541.5 106.1 L550.0 105.2 L558.5 103.7 L566.9 104.5 L575.4 103.9 L583.9 104.9 L592.4 104.9 L600.9 104.9 L609.3 104.8 L617.8 103.5 L626.3 105.6 L634.8 104.4 L643.3 106.1 L651.7 103.5 L660.2 103.9 L668.7 103.2 L677.2 104.8 L685.7 103.0 L694.2 103.8 L702.6 104.0 L711.1 103.9 L719.6 103.5 L728.1 103.7 L736.6 103.4 L745.0 103.3 L753.5 103.4 L762.0 103.4" fill="none" stroke="#94a3b8" stroke-width="2.6"/>
  <path d="M92.0 268.0 L100.5 242.6 L109.0 220.8 L117.4 203.4 L125.9 193.5 L134.4 175.0 L142.9 163.3 L151.4 157.6 L159.8 153.4 L168.3 144.5 L176.8 141.5 L185.3 149.1 L193.8 131.6 L202.3 129.6 L210.7 125.5 L219.2 124.1 L227.7 123.0 L236.2 122.8 L244.7 118.8 L253.1 119.4 L261.6 117.3 L270.1 116.7 L278.6 116.0 L287.1 118.5 L295.5 113.3 L304.0 113.1 L312.5 113.2 L321.0 111.6 L329.5 110.7 L337.9 112.8 L346.4 109.8 L354.9 109.2 L363.4 108.3 L371.9 107.9 L380.4 107.1 L388.8 107.3 L397.3 108.8 L405.8 107.5 L414.3 105.6 L422.8 108.0 L431.2 105.8 L439.7 105.1 L448.2 106.3 L456.7 105.0 L465.2 104.8 L473.6 103.5 L482.1 104.9 L490.6 103.6 L499.1 103.9 L507.6 103.0 L516.1 104.9 L524.5 102.9 L533.0 101.8 L541.5 102.3 L550.0 102.2 L558.5 102.6 L566.9 102.5 L575.4 102.1 L583.9 102.0 L592.4 102.0 L600.9 101.9 L609.3 101.6 L617.8 100.9 L626.3 101.7 L634.8 101.5 L643.3 100.7 L651.7 100.3 L660.2 100.4 L668.7 100.0 L677.2 100.8 L685.7 101.0 L694.2 100.1 L702.6 101.3 L711.1 101.3 L719.6 100.1 L728.1 100.3 L736.6 101.0 L745.0 100.8 L753.5 100.7 L762.0 100.7" fill="none" stroke="#10b981" stroke-width="2.6"/>
  <line x1="405.8" y1="82" x2="405.8" y2="268" stroke="#dc2626" stroke-width="1.8" stroke-dasharray="5 3"/>
  <text x="413.8" y="96" font-size="12.5" font-weight="700" fill="#dc2626">38 에폭 — 여기서부터 앞선다</text>
  <rect x="602" y="204" width="150" height="52" rx="8" fill="#ffffff" stroke="#cbd5e1"/>
  <line x1="614" y1="222" x2="640" y2="222" stroke="#94a3b8" stroke-width="3"/>
  <text x="648" y="226" font-size="12.5" fill="#334155">CE만 (85.64%)</text>
  <line x1="614" y1="242" x2="640" y2="242" stroke="#10b981" stroke-width="3"/>
  <text x="648" y="246" font-size="12.5" fill="#334155">증류 (85.89%)</text>
  <rect x="92" y="316" width="670" height="46" rx="10" fill="#f7fbfa" stroke="#d3e5e2"/>
  <text x="427" y="336" text-anchor="middle" font-size="14.5" font-weight="700" fill="#0b4a48">초반 10여 에폭 동안 증류가 더 나쁘다 — 여기서 멈추면 "증류는 해롭다"는 결론이 나온다</text>
  <text x="427" y="355" text-anchor="middle" font-size="13" fill="#334155">"좋은 교사는 끈질기고 일관되다" — Beyer 등, CVPR 2022</text>

</svg>
